<?xml version="1.0" standalone="no"?>
<!DOCTYPE svg PUBLIC "-//W3C//DTD SVG 20010904//EN"
 "http://www.w3.org/TR/2001/REC-SVG-20010904/DTD/svg10.dtd">
<svg xmlns="http://www.w3.org/2000/svg"
 width="700.000000pt" height="700.000000pt" viewBox="0 0 700.000000 700.000000"
 preserveAspectRatio="xMidYMid meet">
<g transform="translate(0.000000,700.000000) scale(0.100000,-0.100000)"
fill="#000000" stroke="none">
<path d="M3038 6986 c-154 -59 -293 -252 -396 -551 -25 -71 -145 -512 -167
-610 -2 -11 -9 -38 -15 -60 -6 -22 -13 -51 -16 -65 -2 -14 -7 -37 -10 -52 -3
-15 -5 -29 -4 -30 1 -2 -3 -16 -9 -31 -6 -15 -13 -42 -16 -60 -4 -18 -11 -52
-16 -77 -6 -25 -13 -56 -15 -70 -2 -14 -7 -36 -10 -50 -3 -14 -8 -36 -10 -50
-3 -14 -9 -47 -14 -75 -57 -294 -75 -449 -75 -660 0 -299 36 -472 145 -690
l51 -101 -127 -209 c-69 -116 -141 -232 -159 -260 -17 -27 -34 -54 -36 -60 -3
-9 -238 -361 -351 -528 l-40 -58 -21 29 c-12 16 -29 36 -37 45 -8 9 -20 22
-25 29 -21 27 -200 243 -205 248 -3 3 -48 57 -100 120 -52 63 -97 117 -100
120 -3 3 -24 28 -45 55 -22 28 -42 52 -46 55 -3 3 -59 70 -124 150 -66 80
-129 156 -141 168 l-21 24 -25 -44 c-66 -112 -148 -278 -162 -327 -20 -68 -22
-211 -3 -211 12 0 43 49 112 174 15 28 49 85 77 128 l50 78 41 -52 c23 -29 44
-55 47 -58 3 -3 84 -102 180 -220 96 -118 182 -224 192 -235 27 -32 250 -307
288 -355 19 -24 48 -60 65 -80 16 -19 31 -37 33 -40 5 -7 85 83 203 230 56 69
109 134 118 145 31 39 168 230 179 252 7 12 18 27 25 35 17 18 166 249 242
375 l61 101 48 -44 c68 -62 158 -124 256 -177 84 -45 251 -111 303 -121 15 -2
31 -7 35 -10 12 -7 257 -52 342 -63 82 -10 450 -10 550 -1 413 41 733 380 826
874 24 132 24 375 -2 501 -6 30 0 38 97 139 211 218 647 660 752 762 l44 43
35 -53 c20 -29 90 -136 157 -236 66 -101 121 -185 121 -186 0 -1 60 -93 133
-204 72 -111 179 -274 236 -361 58 -88 107 -159 109 -157 13 14 199 323 224
374 33 67 47 155 28 182 -16 24 -62 -34 -169 -212 l-94 -157 -47 72 c-25 40
-96 151 -156 247 -61 96 -182 288 -268 425 -87 138 -163 259 -169 269 -7 11
-40 64 -75 118 -69 109 -61 106 -122 48 -15 -14 -58 -54 -96 -89 -38 -35 -129
-121 -203 -190 -74 -69 -143 -134 -155 -144 -12 -10 -86 -80 -165 -155 -268
-255 -286 -271 -291 -271 -3 0 -29 49 -58 107 -65 133 -152 250 -272 367 -139
134 -212 208 -240 241 -163 191 -230 281 -395 530 -77 116 -152 231 -166 255
-46 75 -258 408 -300 471 -57 84 -145 167 -206 195 -65 30 -163 38 -215 19z"/>
<path d="M6837 6743 c-1 0 -58 -4 -127 -7 -69 -4 -154 -9 -190 -11 -36 -3
-117 -7 -180 -10 -63 -3 -144 -7 -180 -10 -36 -2 -117 -7 -180 -10 -63 -3
-149 -8 -190 -10 -41 -2 -118 -7 -170 -10 -52 -3 -140 -7 -195 -10 -55 -3
-136 -7 -180 -10 -44 -3 -125 -7 -180 -10 -55 -3 -136 -7 -180 -10 -44 -2
-129 -7 -190 -10 -60 -4 -135 -8 -165 -10 -30 -2 -113 -7 -185 -10 -71 -4
-157 -8 -190 -10 -33 -2 -116 -7 -185 -10 -69 -4 -141 -9 -160 -10 -19 -1 -43
-3 -52 -4 -12 -1 6 -37 77 -148 l93 -148 108 2 c60 0 150 4 199 7 50 3 133 8
185 11 52 2 129 7 170 10 41 3 113 7 160 10 47 3 119 7 160 10 228 14 327 20
510 30 98 5 218 12 330 20 36 2 110 7 165 10 55 3 129 8 165 10 35 2 118 7
185 10 66 4 141 8 168 10 26 2 47 2 47 0 0 -4 -114 -273 -140 -330 -51 -113
-213 -500 -213 -509 0 -12 175 -281 199 -306 8 -8 14 -10 14 -3 0 9 334 767
439 996 17 37 31 69 31 72 0 2 20 47 45 99 25 53 45 98 45 100 0 2 17 42 39
88 64 137 65 128 -24 125 -42 -1 -77 -3 -78 -4z"/>
<path d="M2437 6494 c-1 -1 -58 -5 -127 -8 -69 -4 -156 -9 -195 -11 -193 -12
-313 -19 -529 -30 -44 -2 -125 -7 -180 -10 -56 -3 -135 -8 -176 -10 -41 -2
-120 -6 -175 -10 -170 -9 -256 -14 -360 -20 -55 -3 -138 -7 -185 -10 -47 -3
-123 -7 -170 -10 -47 -2 -134 -7 -195 -11 -60 -4 -116 -7 -122 -7 -7 0 -13 -4
-13 -8 0 -7 87 -146 234 -374 29 -44 79 -123 112 -175 32 -52 62 -96 67 -98 4
-2 7 -8 7 -13 0 -5 25 -49 56 -97 31 -48 84 -130 117 -182 33 -52 79 -124 103
-160 23 -36 176 -276 339 -535 164 -258 321 -506 349 -549 28 -44 171 -269
319 -500 147 -232 272 -428 277 -436 9 -13 11 -13 19 0 17 25 85 122 157 221
l34 47 -178 283 c-98 156 -196 312 -218 346 -43 69 -93 147 -209 333 -43 69
-104 166 -135 215 -32 50 -196 311 -365 580 -169 270 -327 519 -349 555 -107
165 -159 251 -155 254 2 2 58 7 124 11 221 12 390 22 520 30 33 2 110 7 170
10 61 3 133 8 160 10 54 4 195 13 345 20 52 3 122 7 155 10 92 7 286 18 321
19 31 0 31 1 88 156 31 85 56 157 56 161 0 4 -88 7 -93 3z"/>
<path d="M5652 4597 c-145 -287 -400 -794 -568 -1127 -169 -333 -473 -936
-677 -1340 -456 -904 -560 -1111 -571 -1128 -6 -10 -17 2 -40 40 -29 47 -159
249 -361 560 -39 59 -81 126 -95 148 -14 22 -104 162 -200 311 -96 148 -213
330 -260 402 -47 73 -121 189 -166 258 -44 68 -105 162 -135 209 -29 47 -57
87 -61 88 -5 2 -8 8 -8 13 0 6 -10 26 -23 44 l-24 35 -105 -142 -106 -141 34
-51 c19 -28 37 -58 41 -66 4 -8 36 -60 72 -115 79 -123 90 -140 283 -445 259
-408 496 -783 649 -1022 79 -125 150 -238 157 -250 7 -13 34 -56 60 -96 26
-39 105 -164 176 -277 72 -112 131 -203 132 -202 1 1 77 151 169 332 310 612
531 1048 740 1460 396 782 507 1000 515 1010 5 6 9 13 9 18 1 8 12 31 216 432
84 165 260 514 393 775 l240 475 -104 155 c-57 85 -107 156 -112 157 -4 2
-125 -232 -270 -520z"/>
</g>
</svg>
